<?xml version="1.0" encoding="UTF-8" standalone="no"?>
<svg
   version="1.0"
   width="572.82837pt"
   height="627.36664pt"
   viewBox="0 0 572.82837 627.36664"
   preserveAspectRatio="xMidYMid"
   id="svg3"
   sodipodi:docname="WhatsApp_Image_2024-01-28_at_1.18.28_PM-removebg.svg"
   inkscape:version="1.3 (0e150ed6c4, 2023-07-21)"
   inkscape:export-filename="WhatsApp_Image_2024-01-28_at_1.18.28_PM-removebg.svg"
   inkscape:export-xdpi="96"
   inkscape:export-ydpi="96"
   xmlns:inkscape="http://www.inkscape.org/namespaces/inkscape"
   xmlns:sodipodi="http://sodipodi.sourceforge.net/DTD/sodipodi-0.dtd"
   xmlns="http://www.w3.org/2000/svg"
   xmlns:svg="http://www.w3.org/2000/svg">
  <defs
     id="defs3" />
  <sodipodi:namedview
     id="namedview3"
     pagecolor="#ffffff"
     bordercolor="#000000"
     borderopacity="0.25"
     inkscape:showpageshadow="2"
     inkscape:pageopacity="0.0"
     inkscape:pagecheckerboard="0"
     inkscape:deskcolor="#d1d1d1"
     inkscape:document-units="pt"
     inkscape:zoom="0.42105309"
     inkscape:cx="624.62433"
     inkscape:cy="700.62424"
     inkscape:window-width="1248"
     inkscape:window-height="1000"
     inkscape:window-x="-7"
     inkscape:window-y="0"
     inkscape:window-maximized="0"
     inkscape:current-layer="svg3" />
  <path
     style="fill:#ffffff;fill-opacity:1;stroke:#ffffff;stroke-width:8.50395;stroke-opacity:1"
     d="m 208.22203,87.670822 64.57024,42.081978 -0.89062,3.5625 -41.41402,-6.23437 c 0,0 -17.81248,-12.24608 -22.2656,-39.410108 z"
     id="path4" />
  <path
     style="fill:#ffffff;fill-opacity:1;stroke:#ffffff;stroke-width:8.50395;stroke-opacity:1"
     d="m 60.852947,311.71779 c 0.13518,-0.0226 31.13589,27.85616 40.856093,46.60272 16.43045,31.68809 15.50799,8.50184 15.50799,8.50184 -16.53089,-4.48558 21.97602,-82.2833 101.43058,-84.16219 27.92691,-0.66039 56.30072,3.94454 90.34463,19.84165 40.79455,19.04938 85.16916,50.04275 85.16916,50.04275 0,0 -84.86565,-47.12443 -144.69344,-35.78863 -59.8278,11.33579 -113.98771,73.68266 -126.89791,127.84256 -12.91021,54.1599 -41.879463,-2.51907 -41.879463,-2.51907 0,0 -34.63716,-57.9385 -19.83764,-130.36163 z"
     id="path5"
     sodipodi:nodetypes="cscsscsscc" />
  <g
     transform="matrix(0.1,0,0,-0.1,-223.17165,826.86663)"
     fill="#000000"
     stroke="none"
     id="g3">
    <path
       d="m 4441,8254 c -86,-23 -167,-72 -229,-139 -198,-211 -169,-533 68,-758 101,-95 202,-166 417,-292 222,-130 217,-127 173,-120 -311,45 -389,58 -470,76 -52,12 -123,34 -158,50 -119,53 -272,176 -347,279 -49,66 -93,205 -110,348 -4,29 -12,52 -18,52 -21,-1 -264,-164 -373,-250 -132,-104 -387,-355 -478,-470 -388,-489 -627,-1093 -677,-1714 -14,-179 -7,-537 14,-686 107,-749 524,-1486 1112,-1966 136,-111 539,-374 552,-360 3,2 -1,64 -7,138 -19,214 -3,414 52,633 92,369 280,698 557,974 426,423 902,592 1378,490 54,-11 181,-45 283,-74 263,-76 343,-89 504,-82 143,6 206,21 315,77 106,53 195,126 251,206 10,13 31,23 60,28 109,16 209,95 261,203 38,79 46,147 27,205 -9,24 -89,163 -180,308 -90,146 -202,328 -249,405 -47,77 -140,228 -206,336 l -121,196 -12,109 c -37,333 -161,596 -394,839 -59,61 -113,118 -122,127 -15,15 -14,19 9,50 14,18 41,65 59,103 32,68 33,73 32,200 0,110 -4,139 -23,187 -69,176 -234,293 -431,305 -99,6 -179,-11 -274,-59 -96,-48 -216,-153 -216,-187 1,-9 38,-40 83,-70 96,-64 270,-233 349,-341 66,-88 195,-300 425,-698 337,-584 436,-750 881,-1484 73,-119 135,-224 138,-232 5,-14 -18,-16 -212,-16 h -219 l -21,33 c -57,86 -404,657 -739,1217 -555,930 -615,1020 -790,1195 -90,90 -144,135 -216,178 -95,58 -96,59 -123,125 -35,86 -74,146 -128,199 -122,119 -302,169 -457,127 z m 84,-1673 c 107,-29 167,-52 272,-105 160,-80 281,-184 483,-417 129,-148 219,-215 762,-563 104,-67 687,-424 785,-481 25,-15 33,-28 38,-59 17,-104 83,-191 180,-238 25,-12 45,-26 45,-31 0,-15 -104,-56 -175,-68 -90,-15 -278,-6 -370,19 -123,34 -240,84 -620,267 -342,165 -447,210 -616,264 -385,123 -795,101 -1129,-62 -259,-126 -513,-370 -668,-640 -61,-108 -131,-279 -166,-407 -21,-81 -56,-278 -56,-321 0,-38 -151,222 -216,371 -287,663 -253,1332 95,1884 189,300 385,461 682,560 149,50 190,55 404,51 154,-2 205,-7 270,-24 z m 1181,-307 c 43,-21 71,-55 84,-105 16,-57 3,-107 -40,-153 -32,-34 -43,-40 -92,-44 -66,-5 -105,12 -145,65 -23,30 -28,46 -28,93 0,47 5,63 29,94 48,63 123,83 192,50 z"
       id="path1" />
    <path
       d="m 7805,4249 c -520,-139 -925,-364 -1289,-719 -390,-379 -647,-861 -707,-1323 -16,-126 -14,-128 89,-98 363,107 747,330 1117,651 395,343 743,868 904,1362 22,70 41,134 41,143 0,21 -27,18 -155,-16 z"
       id="path2" />
    <path
       d="m 5605,4122 c -351,-152 -680,-433 -890,-762 -57,-89 -142,-255 -183,-360 -78,-196 -119,-458 -109,-680 7,-143 18,-195 44,-221 38,-37 359,-100 523,-103 l 95,-1 2,165 c 2,238 26,379 99,605 58,178 163,370 314,577 85,117 324,362 448,458 45,35 82,67 82,71 0,13 -290,299 -302,299 -7,0 -63,-22 -123,-48 z"
       id="path3" />
  </g>
</svg>
